<?xml version="1.0" encoding="UTF-8" standalone="no"?>
<!DOCTYPE svg PUBLIC "-//W3C//DTD SVG 1.1//EN" "http://www.w3.org/Graphics/SVG/1.1/DTD/svg11.dtd">
<svg width="100%" height="100%" viewBox="0 0 256 256" version="1.1" xmlns="http://www.w3.org/2000/svg" xmlns:xlink="http://www.w3.org/1999/xlink" xml:space="preserve" xmlns:serif="http://www.serif.com/" style="fill-rule:evenodd;clip-rule:evenodd;stroke-linejoin:round;stroke-miterlimit:2;">
    <path d="M256,60C256,26.885 229.115,0 196,0L60,0C26.885,0 0,26.885 0,60L0,196C0,229.115 26.885,256 60,256L196,256C229.115,256 256,229.115 256,196L256,60Z" style="fill:rgb(57,0,145);"/>
    <g transform="matrix(1.04611,0,0,1.04611,-32.5477,-52.9389)">
        <clipPath id="_clip1">
            <path d="M275.83,107.961C275.83,76.306 250.129,50.606 218.474,50.606L88.469,50.606C56.813,50.606 31.113,76.306 31.113,107.961L31.113,237.967C31.113,269.622 56.813,295.322 88.469,295.322L218.474,295.322C250.129,295.322 275.83,269.622 275.83,237.967L275.83,107.961Z"/>
        </clipPath>
        <g clip-path="url(#_clip1)">
            <path d="M166.25,341.193L292.75,268.159C296.394,266.055 299.706,262.422 302.107,258.262L153,172.175L3.893,258.263C6.294,262.422 9.607,266.056 13.25,268.159L139.75,341.193C147.037,345.401 158.963,345.401 166.25,341.193Z" style="fill:rgb(40,0,104);fill-rule:nonzero;"/>
        </g>
    </g>
    <g transform="matrix(1.04549,0,0,1.04549,-8.0023,-66.7793)">
        <clipPath id="_clip2">
            <path d="M252.515,121.263C252.515,89.589 226.8,63.874 195.126,63.874L65.043,63.874C33.369,63.874 7.654,89.589 7.654,121.263L7.654,251.345C7.654,283.019 33.369,308.735 65.043,308.735L195.126,308.735C226.8,308.735 252.515,283.019 252.515,251.345L252.515,121.263Z"/>
        </clipPath>
        <g clip-path="url(#_clip2)">
            <path d="M302.108,86.087C299.706,81.927 296.393,78.294 292.75,76.19L166.25,3.156C158.963,-1.052 147.037,-1.052 139.75,3.156L13.25,76.19C5.962,80.397 0,90.725 0,99.14L0,245.209C0,249.417 1.491,254.103 3.893,258.262L153,172.175L302.108,86.087Z" style="fill:rgb(161,121,220);fill-rule:nonzero;"/>
        </g>
    </g>
    <g transform="matrix(0.813786,0,0,0.813786,2.9977,-12.9386)">
        <path d="M153,274.175C96.757,274.175 51,228.418 51,172.175C51,115.932 96.757,70.175 153,70.175C189.292,70.175 223.139,89.705 241.331,121.143L197.188,146.687C188.083,130.951 171.15,121.175 153,121.175C124.878,121.175 102,144.053 102,172.175C102,200.296 124.878,223.175 153,223.175C171.152,223.175 188.085,213.399 197.191,197.66L241.334,223.203C223.142,254.644 189.294,274.175 153,274.175Z" style="fill:white;fill-rule:nonzero;"/>
    </g>
    <g transform="matrix(0.880434,0,0,0.880434,14,1.17286)">
        <path d="M201.892,116.294L201.892,129.768L215.366,129.768L215.366,116.294L222.103,116.294L222.103,129.768L235.577,129.768L235.577,136.505L222.103,136.505L222.103,149.978L235.577,149.978L235.577,156.715L222.103,156.715L222.103,170.189L215.366,170.189L215.366,156.715L201.892,156.715L201.892,170.189L195.155,170.189L195.155,156.715L181.682,156.715L181.682,149.978L195.155,149.978L195.155,136.505L181.682,136.505L181.682,129.768L195.155,129.768L195.155,116.294L201.892,116.294ZM215.366,136.505L201.892,136.505L201.892,149.978L215.366,149.978L215.366,136.505Z" style="fill:white;fill-rule:nonzero;"/>
    </g>
</svg>
