<?xml version="1.0" encoding="UTF-8" standalone="no"?>
<!DOCTYPE svg PUBLIC "-//W3C//DTD SVG 1.1//EN" "http://www.w3.org/Graphics/SVG/1.1/DTD/svg11.dtd">
<svg width="100%" height="100%" viewBox="0 0 256 256" version="1.1" xmlns="http://www.w3.org/2000/svg" xmlns:xlink="http://www.w3.org/1999/xlink" xml:space="preserve" xmlns:serif="http://www.serif.com/" style="fill-rule:evenodd;clip-rule:evenodd;stroke-linejoin:round;stroke-miterlimit:2;">
    <path d="M256,60C256,26.885 229.115,0 196,0L60,0C26.885,0 0,26.885 0,60L0,196C0,229.115 26.885,256 60,256L196,256C229.115,256 256,229.115 256,196L256,60Z" style="fill:rgb(36,41,56);"/>
    <g>
        <path d="M224.225,119.094L136.906,31.775C135.711,30.579 134.291,29.63 132.729,28.982C131.166,28.335 129.491,28.002 127.8,28.002C126.109,28.002 124.434,28.335 122.871,28.982C121.309,29.63 119.889,30.579 118.694,31.775L100.569,49.9L123.569,72.9C128.919,71.025 135.044,72.306 139.306,76.569C141.335,78.601 142.752,81.164 143.394,83.963C144.036,86.763 143.878,89.686 142.937,92.4L165.106,114.569C170.469,112.719 176.656,113.912 180.937,118.206C182.361,119.63 183.49,121.32 184.26,123.18C185.03,125.04 185.426,127.033 185.426,129.046C185.425,131.059 185.029,133.052 184.258,134.912C183.487,136.771 182.358,138.461 180.934,139.884C179.511,141.308 177.821,142.436 175.961,143.206C174.101,143.977 172.108,144.373 170.095,144.372C168.082,144.372 166.088,143.975 164.229,143.205C162.369,142.434 160.679,141.305 159.256,139.881C154.756,135.381 153.644,128.756 155.919,123.212L135.244,102.537L135.244,156.944C136.745,157.686 138.116,158.666 139.306,159.844C140.729,161.267 141.858,162.956 142.629,164.816C143.399,166.675 143.795,168.668 143.795,170.681C143.795,172.694 143.399,174.687 142.629,176.546C141.858,178.406 140.729,180.096 139.306,181.519C137.883,182.942 136.193,184.071 134.334,184.841C132.474,185.611 130.481,186.008 128.469,186.008C126.456,186.008 124.463,185.611 122.604,184.841C120.744,184.071 119.054,182.942 117.631,181.519C116.206,180.096 115.076,178.407 114.305,176.548C113.533,174.688 113.136,172.694 113.136,170.681C113.136,168.668 113.533,166.675 114.305,164.815C115.076,162.955 116.206,161.266 117.631,159.844C119.112,158.369 120.756,157.25 122.65,156.5L122.65,101.587C120.825,100.837 119.112,99.731 117.631,98.244C115.479,96.094 114.016,93.353 113.428,90.368C112.841,87.384 113.155,84.292 114.331,81.488L91.644,58.813L31.769,118.625C30.572,119.821 29.622,121.241 28.974,122.804C28.326,124.367 27.992,126.042 27.992,127.734C27.992,129.426 28.326,131.102 28.974,132.665C29.622,134.228 30.572,135.648 31.769,136.844L119.094,224.156C120.289,225.352 121.709,226.301 123.271,226.949C124.834,227.596 126.509,227.929 128.2,227.929C129.891,227.929 131.566,227.596 133.129,226.949C134.691,226.301 136.111,225.352 137.306,224.156L224.225,137.375C225.422,136.179 226.372,134.759 227.02,133.196C227.668,131.633 228.001,129.958 228.001,128.266C228.001,126.574 227.668,124.898 227.02,123.335C226.372,121.772 225.422,120.352 224.225,119.156" style="fill:rgb(240,60,46);fill-rule:nonzero;"/>
    </g>
</svg>
