<?xml version="1.0" encoding="UTF-8" standalone="no"?>
<!DOCTYPE svg PUBLIC "-//W3C//DTD SVG 1.1//EN" "http://www.w3.org/Graphics/SVG/1.1/DTD/svg11.dtd">
<svg width="100%" height="100%" viewBox="0 0 1734 1734" version="1.1" xmlns="http://www.w3.org/2000/svg" xmlns:xlink="http://www.w3.org/1999/xlink" xml:space="preserve" xmlns:serif="http://www.serif.com/" style="fill-rule:evenodd;clip-rule:evenodd;stroke-miterlimit:2;">
    <g transform="matrix(4.16667,0,0,4.16667,180,15)">
        <path d="M201.975,0.244C211.373,10.944 214.475,26.244 211.773,40.044C208.873,55.544 200.273,69.244 190.174,81.044C182.074,90.544 172.773,98.944 163.074,106.744C151.774,115.844 140.674,125.644 133.574,138.444C127.574,148.844 126.174,161.644 130.274,172.944C136.974,192.344 152.574,206.744 161.074,225.044C151.674,216.744 142.474,208.144 133.874,199.044C124.874,189.444 116.374,179.244 110.774,167.244C106.974,158.844 105.274,149.044 108.174,140.144C111.074,131.044 117.574,123.744 124.074,116.944C142.174,98.844 164.475,85.544 182.174,67.144C191.975,57.044 200.074,44.944 202.873,31.044C205.174,20.844 204.074,10.344 201.975,0.244Z" style="fill:rgb(234,44,47);fill-rule:nonzero;"/>
        <path d="M201.975,0.244C211.373,10.944 214.475,26.244 211.773,40.044C208.873,55.544 200.273,69.244 190.174,81.044C182.074,90.544 172.773,98.944 163.074,106.744C151.774,115.844 140.674,125.644 133.574,138.444C127.574,148.844 126.174,161.644 130.274,172.944C136.974,192.344 152.574,206.744 161.074,225.044C151.674,216.744 142.474,208.144 133.874,199.044C124.874,189.444 116.374,179.244 110.774,167.244C106.974,158.844 105.274,149.044 108.174,140.144C111.074,131.044 117.574,123.744 124.074,116.944C142.174,98.844 164.475,85.544 182.174,67.144C191.975,57.044 200.074,44.944 202.873,31.044C205.174,20.844 204.074,10.344 201.975,0.244Z" style="fill:none;stroke:rgb(234,44,47);stroke-width:0.09px;"/>
        <path d="M187.174,114.144C206.574,99.844 229.273,90.744 252.273,84.144C234.074,95.744 215.074,106.344 199.373,121.244C193.674,126.744 188.273,133.044 185.773,140.744C183.873,146.444 184.674,152.744 186.975,158.144C191.174,167.744 198.273,175.544 203.674,184.344C208.273,191.844 209.074,201.444 205.574,209.544C200.273,221.444 189.873,230.144 179.074,237.044C177.674,237.844 176.475,239.344 174.773,239.544C181.975,233.044 187.574,223.844 187.373,213.944C187.174,206.544 183.074,200.044 178.273,194.744C168.373,182.944 160.074,167.944 161.774,152.044C163.475,136.144 174.873,123.344 187.174,114.144Z" style="fill:rgb(234,44,47);fill-rule:nonzero;"/>
        <path d="M187.174,114.144C206.574,99.844 229.273,90.744 252.273,84.144C234.074,95.744 215.074,106.344 199.373,121.244C193.674,126.744 188.273,133.044 185.773,140.744C183.873,146.444 184.674,152.744 186.975,158.144C191.174,167.744 198.273,175.544 203.674,184.344C208.273,191.844 209.074,201.444 205.574,209.544C200.273,221.444 189.873,230.144 179.074,237.044C177.674,237.844 176.475,239.344 174.773,239.544C181.975,233.044 187.574,223.844 187.373,213.944C187.174,206.544 183.074,200.044 178.273,194.744C168.373,182.944 160.074,167.944 161.774,152.044C163.475,136.144 174.873,123.344 187.174,114.144Z" style="fill:none;stroke:rgb(234,44,47);stroke-width:0.09px;"/>
        <path d="M255.975,229.744C260.174,224.644 266.873,223.344 272.975,222.544C283.574,221.144 294.873,223.844 302.873,231.144C309.475,237.044 313.174,246.244 311.773,255.144C310.273,265.444 303.373,274.044 295.574,280.544C281.475,291.844 264.074,298.444 246.674,302.845C247.674,301.743 248.773,300.743 250.074,299.944C263.273,292.844 276.373,284.544 286.074,272.944C291.975,265.744 296.574,256.344 294.674,246.844C292.674,235.844 281.975,227.844 271.074,227.244C265.873,226.744 260.975,228.744 255.975,229.744Z" style="fill:rgb(6,116,187);fill-rule:nonzero;"/>
        <path d="M255.975,229.744C260.174,224.644 266.873,223.344 272.975,222.544C283.574,221.144 294.873,223.844 302.873,231.144C309.475,237.044 313.174,246.244 311.773,255.144C310.273,265.444 303.373,274.044 295.574,280.544C281.475,291.844 264.074,298.444 246.674,302.845C247.674,301.743 248.773,300.743 250.074,299.944C263.273,292.844 276.373,284.544 286.074,272.944C291.975,265.744 296.574,256.344 294.674,246.844C292.674,235.844 281.975,227.844 271.074,227.244C265.873,226.744 260.975,228.744 255.975,229.744Z" style="fill:none;stroke:rgb(6,116,187);stroke-width:0.09px;"/>
        <path d="M54.973,238.844C73.373,230.944 93.373,225.844 113.474,226.144C101.774,229.544 89.773,232.444 78.773,237.644C76.173,239.044 73.173,240.344 71.673,243.044C70.873,245.144 73.073,246.544 74.673,247.244C81.473,250.044 88.973,250.444 96.273,251.144C121.874,252.844 147.574,251.844 173.074,250.244C198.273,248.644 223.273,245.244 248.174,241.244C242.674,243.844 237.074,246.444 231.975,249.744C229.373,251.544 226.174,252.044 223.273,252.744C192.674,259.544 161.274,261.644 130.074,262.144C117.974,262.244 105.974,262.044 93.973,261.244C80.573,260.344 67.073,259.344 53.973,255.844C50.173,254.744 46.173,253.544 43.173,250.844C41.673,249.644 41.673,247.244 42.973,245.844C46.273,242.444 50.873,240.844 54.973,238.844Z" style="fill:rgb(6,116,187);fill-rule:nonzero;"/>
        <path d="M54.973,238.844C73.373,230.944 93.373,225.844 113.474,226.144C101.774,229.544 89.773,232.444 78.773,237.644C76.173,239.044 73.173,240.344 71.673,243.044C70.873,245.144 73.073,246.544 74.673,247.244C81.473,250.044 88.973,250.444 96.273,251.144C121.874,252.844 147.574,251.844 173.074,250.244C198.273,248.644 223.273,245.244 248.174,241.244C242.674,243.844 237.074,246.444 231.975,249.744C229.373,251.544 226.174,252.044 223.273,252.744C192.674,259.544 161.274,261.644 130.074,262.144C117.974,262.244 105.974,262.044 93.973,261.244C80.573,260.344 67.073,259.344 53.973,255.844C50.173,254.744 46.173,253.544 43.173,250.844C41.673,249.644 41.673,247.244 42.973,245.844C46.273,242.444 50.873,240.844 54.973,238.844Z" style="fill:none;stroke:rgb(6,116,187);stroke-width:0.09px;"/>
        <path d="M78.573,281.544C83.773,277.444 89.973,275.144 96.173,272.944C94.173,275.344 91.373,277.644 91.173,280.944C91.073,283.044 92.773,284.644 94.473,285.644C97.773,287.344 101.474,287.944 105.174,288.444C124.374,290.444 143.774,291.544 163.174,290.244C180.873,289.344 198.475,286.444 215.975,283.344C220.773,287.844 226.475,290.944 232.475,293.644C211.373,299.844 189.674,303.444 167.873,305.143C147.274,306.544 126.374,306.444 105.874,303.143C97.773,301.643 89.473,299.944 82.073,296.144C79.073,294.544 75.673,292.444 74.773,288.944C74.173,285.944 76.373,283.244 78.573,281.544Z" style="fill:rgb(6,116,187);fill-rule:nonzero;"/>
        <path d="M78.573,281.544C83.773,277.444 89.973,275.144 96.173,272.944C94.173,275.344 91.373,277.644 91.173,280.944C91.073,283.044 92.773,284.644 94.473,285.644C97.773,287.344 101.474,287.944 105.174,288.444C124.374,290.444 143.774,291.544 163.174,290.244C180.873,289.344 198.475,286.444 215.975,283.344C220.773,287.844 226.475,290.944 232.475,293.644C211.373,299.844 189.674,303.444 167.873,305.143C147.274,306.544 126.374,306.444 105.874,303.143C97.773,301.643 89.473,299.944 82.073,296.144C79.073,294.544 75.673,292.444 74.773,288.944C74.173,285.944 76.373,283.244 78.573,281.544Z" style="fill:none;stroke:rgb(6,116,187);stroke-width:0.09px;"/>
        <path d="M90.173,325.143C94.773,321.444 100.474,319.544 106.074,317.944C104.274,319.643 101.074,321.743 102.474,324.643C105.174,328.143 110.174,328.544 114.174,329.444C131.074,331.544 148.174,332.944 165.074,331.643C177.873,330.845 190.475,328.544 202.975,326.345C210.174,330.544 217.674,334.143 225.373,337.345C213.574,342.643 200.873,346.044 188.174,348.444C166.773,352.243 144.674,352.743 123.174,349.345C113.674,347.643 103.974,345.444 95.373,340.743C92.073,338.845 88.573,336.643 87.173,332.944C86.073,330.044 87.873,326.944 90.173,325.143Z" style="fill:rgb(6,116,187);fill-rule:nonzero;"/>
        <path d="M90.173,325.143C94.773,321.444 100.474,319.544 106.074,317.944C104.274,319.643 101.074,321.743 102.474,324.643C105.174,328.143 110.174,328.544 114.174,329.444C131.074,331.544 148.174,332.944 165.074,331.643C177.873,330.845 190.475,328.544 202.975,326.345C210.174,330.544 217.674,334.143 225.373,337.345C213.574,342.643 200.873,346.044 188.174,348.444C166.773,352.243 144.674,352.743 123.174,349.345C113.674,347.643 103.974,345.444 95.373,340.743C92.073,338.845 88.573,336.643 87.173,332.944C86.073,330.044 87.873,326.944 90.173,325.143Z" style="fill:none;stroke:rgb(6,116,187);stroke-width:0.09px;"/>
        <path d="M34.673,353.444C43.873,350.345 53.373,347.845 63.073,347.544C66.973,347.444 70.973,347.643 74.373,349.643C62.773,350.345 51.173,353.243 40.773,358.544C38.473,359.845 35.873,361.345 34.973,364.044C34.973,367.143 38.473,368.143 40.773,369.143C55.273,374.544 70.773,376.243 85.973,377.845C131.274,381.643 176.873,380.643 222.174,376.544C239.273,374.643 256.475,372.743 273.074,368.044C278.373,366.243 284.373,364.444 287.873,359.743C289.975,356.944 288.574,353.444 286.475,351.044C289.873,352.944 294.674,355.345 293.975,359.944C292.674,364.743 287.773,367.243 283.773,369.544C270.975,376.044 256.872,379.345 242.873,382.243C202.174,390.243 160.474,392.044 119.074,390.845C87.873,389.743 56.673,386.743 25.873,381.444C20.373,380.143 14.173,379.044 10.173,374.743C7.573,371.743 9.873,367.544 12.373,365.345C18.673,359.544 26.773,356.345 34.673,353.444Z" style="fill:rgb(6,116,187);fill-rule:nonzero;"/>
        <path d="M34.673,353.444C43.873,350.345 53.373,347.845 63.073,347.544C66.973,347.444 70.973,347.643 74.373,349.643C62.773,350.345 51.173,353.243 40.773,358.544C38.473,359.845 35.873,361.345 34.973,364.044C34.973,367.143 38.473,368.143 40.773,369.143C55.273,374.544 70.773,376.243 85.973,377.845C131.274,381.643 176.873,380.643 222.174,376.544C239.273,374.643 256.475,372.743 273.074,368.044C278.373,366.243 284.373,364.444 287.873,359.743C289.975,356.944 288.574,353.444 286.475,351.044C289.873,352.944 294.674,355.345 293.975,359.944C292.674,364.743 287.773,367.243 283.773,369.544C270.975,376.044 256.872,379.345 242.873,382.243C202.174,390.243 160.474,392.044 119.074,390.845C87.873,389.743 56.673,386.743 25.873,381.444C20.373,380.143 14.173,379.044 10.173,374.743C7.573,371.743 9.873,367.544 12.373,365.345C18.673,359.544 26.773,356.345 34.673,353.444Z" style="fill:none;stroke:rgb(6,116,187);stroke-width:0.09px;"/>
        <path d="M283.873,387.643C293.975,384.143 304.773,380.444 312.273,372.444C310.975,381.143 303.475,387.143 296.074,391.044C281.873,398.444 265.975,401.845 250.174,404.643C216.773,409.944 182.873,411.243 148.974,410.643C125.874,409.944 102.574,409.044 79.873,404.243C74.473,402.743 68.673,401.743 63.973,398.544C84.173,401.944 104.674,403.345 125.174,404.143C158.874,405.143 192.674,403.845 226.174,399.643C245.574,396.944 265.074,393.643 283.873,387.643Z" style="fill:rgb(6,116,187);fill-rule:nonzero;"/>
        <path d="M283.873,387.643C293.975,384.143 304.773,380.444 312.273,372.444C310.975,381.143 303.475,387.143 296.074,391.044C281.873,398.444 265.975,401.845 250.174,404.643C216.773,409.944 182.873,411.243 148.974,410.643C125.874,409.944 102.574,409.044 79.873,404.243C74.473,402.743 68.673,401.743 63.973,398.544C84.173,401.944 104.674,403.345 125.174,404.143C158.874,405.143 192.674,403.845 226.174,399.643C245.574,396.944 265.074,393.643 283.873,387.643Z" style="fill:none;stroke:rgb(6,116,187);stroke-width:0.09px;"/>
    </g>
</svg>
