<?xml version="1.0" encoding="UTF-8" standalone="no"?>
<!DOCTYPE svg PUBLIC "-//W3C//DTD SVG 1.1//EN" "http://www.w3.org/Graphics/SVG/1.1/DTD/svg11.dtd">
<svg width="100%" height="100%" viewBox="0 0 9556 9557" version="1.1" xmlns="http://www.w3.org/2000/svg" xmlns:xlink="http://www.w3.org/1999/xlink" xml:space="preserve" xmlns:serif="http://www.serif.com/" style="fill-rule:evenodd;clip-rule:evenodd;stroke-linejoin:round;stroke-miterlimit:2;">
    <g transform="matrix(4.17152,0,0,4.17152,-435.534,-445.882)">
        <g>
            <path d="M656.504,1320.46L672.469,1323.94L616.518,1501.34L110.295,1501.34L110.295,1483.56L134.976,1483.56C162.628,1483.56 182.368,1474.52 194.222,1456.58C200.979,1446.22 204.261,1422.33 204.261,1385.14L204.261,963.174C204.261,922.371 199.812,896.859 190.759,886.652C178.256,872.502 159.658,865.421 134.976,865.421L110.295,865.421L110.295,847.483L406.356,847.483L406.356,865.421C371.636,865.096 347.278,868.222 333.284,874.966C319.303,881.711 309.757,890.271 304.647,900.633C299.55,910.828 296.917,935.509 296.917,974.367L296.917,1385.12C296.917,1411.8 299.55,1430.06 304.647,1440.09C308.434,1446.84 314.361,1451.76 322.428,1455.05C330.483,1458.19 355.501,1459.84 397.627,1459.84L445.356,1459.84C495.549,1459.84 530.762,1456.22 551.007,1448.79C571.253,1441.39 589.683,1428.22 606.466,1409.48C623.093,1390.74 639.876,1360.94 656.504,1320.46Z" style="fill:white;stroke:black;stroke-width:4.79px;"/>
            <path d="M734.491,1197.71L537.454,1197.71L502.993,1278.03C494.407,1297.76 490.192,1312.5 490.192,1322.36C490.192,1330.06 493.902,1336.85 501.204,1342.72C508.635,1348.62 524.51,1352.47 549.114,1354.25L549.114,1368.1L388.834,1368.1L388.834,1354.25C410.104,1350.42 423.813,1345.56 430.09,1339.53C442.905,1327.6 457.003,1303.15 472.502,1266.37L651.601,847.561L664.675,847.561L841.854,1270.86C856.082,1304.93 869.013,1326.96 880.673,1337.09C892.333,1347.19 908.597,1352.98 929.349,1354.24L929.349,1368.09L728.473,1368.09L728.473,1354.24C748.719,1353.23 762.428,1349.75 769.6,1344.01C776.772,1338.35 780.365,1331.31 780.365,1322.98C780.365,1311.98 775.229,1294.68 765.242,1270.84L734.491,1197.71ZM723.985,1169.9L637.633,964.276L549.101,1169.9L723.985,1169.9Z" style="fill:white;stroke:black;stroke-width:4.79px;"/>
            <path d="M1355.07,843.138L1362.36,997.751L1343.78,997.751C1340.28,970.54 1335.47,951.138 1329.17,939.361C1319.21,920.62 1305.78,906.846 1289.19,897.884C1272.45,888.935 1250.55,884.447 1223.35,884.447L1130.44,884.447L1130.44,1388.1C1130.44,1428.58 1134.92,1453.78 1143.56,1463.92C1155.83,1477.53 1174.9,1484.31 1200.45,1484.31L1223.36,1484.31L1223.36,1502.22L943.823,1502.22L943.823,1484.31L967.22,1484.31C995.079,1484.31 1014.83,1475.86 1026.44,1458.93C1033.57,1448.64 1037.23,1424.94 1037.23,1388.1L1037.23,884.447L957.934,884.447C927.247,884.447 905.341,886.769 892.411,891.243C875.498,897.391 861.063,909.336 849.118,926.742C837.172,944.316 830.039,967.882 827.73,997.751L809.313,997.751L817.108,843.138L1355.07,843.138Z" style="fill:white;stroke:black;stroke-width:4.79px;"/>
            <path d="M1435.05,1059.31L1435.05,1309.08L1573.95,1309.08C1610.07,1309.08 1634.09,1303.66 1646.16,1292.84C1662.4,1278.52 1671.31,1253.4 1673.22,1217.28L1690.39,1217.28L1690.39,1437.31L1673.22,1437.31C1668.91,1406.61 1664.48,1386.87 1660.17,1378.12C1654.59,1367.32 1645.37,1358.71 1632.66,1352.5C1619.92,1346.31 1600.37,1343.12 1573.95,1343.12L1435.05,1343.12L1435.05,1551.52C1435.05,1579.51 1436.35,1596.57 1438.72,1602.6C1441.25,1608.65 1445.56,1613.41 1451.77,1617.08C1457.98,1620.59 1469.9,1622.32 1487.23,1622.32L1594.46,1622.32C1630.11,1622.32 1656.2,1619.94 1672.28,1614.85C1688.5,1609.91 1703.92,1600.21 1718.9,1585.57C1738.14,1566.32 1757.86,1537.2 1778.06,1498.37L1796.69,1498.37L1742.28,1656.85L1255.14,1656.85L1255.14,1639.68L1277.57,1639.68C1292.36,1639.65 1306.9,1635.93 1319.88,1628.86C1329.91,1623.92 1336.6,1616.45 1340.24,1606.57C1343.75,1596.57 1345.48,1576.19 1345.48,1545.49L1345.48,1134.87C1345.48,1094.78 1341.53,1070.12 1333.4,1060.73C1322.26,1048.32 1303.66,1042.11 1277.56,1042.11L1255.12,1042.11L1255.12,1024.77L1742.27,1024.77L1749.26,1163.18L1730.97,1163.18C1724.43,1129.94 1717.29,1107.18 1709.34,1094.78C1701.39,1082.37 1689.75,1072.82 1674.18,1066.3C1661.76,1061.69 1639.81,1059.31 1608.47,1059.31L1435.05,1059.31Z" style="fill:white;stroke:black;stroke-width:4.79px;"/>
            <path d="M2090.95,1137.57L2231.43,1346.9C2270.29,1404.86 2299.12,1441.43 2318.07,1456.76C2336.84,1472.07 2360.73,1480.47 2389.7,1482.12L2389.7,1499.9L2108.91,1499.9L2108.91,1482.12C2127.51,1481.8 2141.36,1479.81 2150.4,1476.19C2157.04,1473.4 2162.8,1468.84 2167.04,1463.02C2171.32,1457.09 2173.45,1450.98 2173.45,1444.88C2173.39,1437.28 2171.94,1429.75 2169.17,1422.67C2166.86,1417.22 2157.97,1403.06 2142.67,1380.19L2031.64,1212.35L1894.62,1387.92C1880.14,1406.69 1871.39,1419.05 1868.61,1425.31C1865.64,1431.56 1864.14,1438.15 1864.14,1444.9C1864.14,1455.29 1868.61,1463.69 1877.17,1470.43C1885.88,1477.19 1902.52,1481.15 1926.89,1482.13L1926.89,1499.91L1694.82,1499.91L1694.82,1482.13C1711.31,1480.49 1725.3,1477.01 1737.33,1471.93C1757.7,1463.28 1776.82,1451.92 1794.15,1438.15C1812.25,1423.99 1832.85,1402.23 1855.91,1372.93L2010.4,1178.1L1881.59,989.347C1846.51,938.285 1816.71,904.693 1792.32,888.883C1767.79,872.904 1739.63,864.513 1707.83,863.514L1707.83,845.564L2010.39,845.564L2010.39,863.514C1984.68,864.513 1967.07,868.624 1957.53,876.03C1948.12,883.436 1943.36,891.684 1943.36,900.569C1943.36,912.592 1951.09,929.88 1966.41,952.772L2066.88,1102.82L2183.15,955.573C2196.65,938.285 2204.89,926.417 2208.03,919.997C2210.99,913.409 2212.63,906.82 2212.63,900.063C2212.63,893.306 2210.66,887.378 2206.7,882.268C2202.25,875.745 2195.85,870.788 2188.41,868.105C2181,865.304 2165.69,863.825 2142.64,863.488L2142.64,845.538L2374.69,845.538L2374.69,863.488C2356.43,864.487 2341.43,867.275 2329.75,872.061C2312.44,879.467 2296.47,889.518 2281.97,902.034C2267.47,914.55 2247.06,937.779 2220.68,971.539L2090.95,1137.57Z" style="fill:white;stroke:black;stroke-width:4.79px;"/>
        </g>
    </g>
</svg>
