<?xml version="1.0" encoding="UTF-8" standalone="no"?>
<!DOCTYPE svg PUBLIC "-//W3C//DTD SVG 1.1//EN" "http://www.w3.org/Graphics/SVG/1.1/DTD/svg11.dtd">
<svg width="100%" height="100%" viewBox="0 0 266 296" version="1.1" xmlns="http://www.w3.org/2000/svg" xmlns:xlink="http://www.w3.org/1999/xlink" xml:space="preserve" xmlns:serif="http://www.serif.com/" style="fill-rule:evenodd;clip-rule:evenodd;stroke-linejoin:round;stroke-miterlimit:2;">
    <g transform="matrix(1,0,0,1,5,20)">
        <path d="M256,60C256,26.885 229.115,0 196,0L60,0C26.885,0 0,26.885 0,60L0,196C0,229.115 26.885,256 60,256L196,256C229.115,256 256,229.115 256,196L256,60Z" style="fill:rgb(36,41,56);"/>
    </g>
    <g transform="matrix(1,0,0,1,5,20)">
        <path d="M87.449,87.005L75.811,75.361L75.856,159.463L75.997,163.39C76.053,165.246 76.405,167.327 76.967,169.493L169.147,202.005L192.209,191.796L192.229,191.762L87.444,87.005L87.449,87.005Z" style="fill:rgb(0,196,179);fill-rule:nonzero;"/>
    </g>
    <g transform="matrix(1,0,0,1,5,20)">
        <path d="M76.967,169.493L76.979,169.493C76.97,169.459 76.956,169.42 76.939,169.38C76.959,169.423 76.959,169.465 76.967,169.493ZM192.187,191.796L169.124,202.005L76.959,169.493C78.717,176.254 82.618,183.853 86.808,187.999L116.874,217.916L183.778,218L192.159,191.796L192.187,191.796Z" style="fill:rgb(34,211,197);fill-rule:nonzero;"/>
    </g>
    <g transform="matrix(1,0,0,1,5,20)">
        <path d="M76.126,75.364L40.287,129.491C37.311,132.669 38.796,139.227 43.586,144.059L64.274,164.917L77.279,169.501C76.717,167.341 76.363,165.282 76.309,163.398L76.169,159.472L76.126,75.37L76.126,75.364Z" style="fill:rgb(0,117,201);fill-rule:nonzero;"/>
    </g>
    <g transform="matrix(1,0,0,1,5,20)">
        <path d="M169.906,76.447C167.741,75.898 165.665,75.553 163.795,75.499L159.638,75.347L75.811,75.367L192.226,191.765L202.453,168.702L169.912,76.453L169.906,76.447Z" style="fill:rgb(0,117,201);fill-rule:nonzero;"/>
    </g>
    <g transform="matrix(1,0,0,1,5,20)">
        <path d="M169.799,76.427C169.836,76.441 169.875,76.45 169.906,76.455L169.906,76.444C169.87,76.436 169.836,76.436 169.799,76.422L169.799,76.427ZM188.404,86.322C184.171,82.061 176.676,78.165 169.906,76.455L202.447,168.697L192.209,191.759L217.19,183.777L217.246,115.287L188.401,86.319L188.404,86.322Z" style="fill:rgb(0,168,225);fill-rule:nonzero;"/>
    </g>
    <g transform="matrix(1,0,0,1,5,20)">
        <path d="M165.344,63.523L144.532,42.823C139.677,38.051 133.119,36.56 129.969,39.53L75.845,75.361L159.672,75.342L163.828,75.493C165.699,75.55 167.777,75.893 169.94,76.441L165.35,63.518L165.344,63.523Z" style="fill:rgb(0,196,179);fill-rule:nonzero;"/>
    </g>
</svg>
