<?xml version="1.0" encoding="UTF-8" standalone="no"?>
<!DOCTYPE svg PUBLIC "-//W3C//DTD SVG 1.1//EN" "http://www.w3.org/Graphics/SVG/1.1/DTD/svg11.dtd">
<svg width="100%" height="100%" viewBox="0 0 266 296" version="1.1" xmlns="http://www.w3.org/2000/svg" xmlns:xlink="http://www.w3.org/1999/xlink" xml:space="preserve" xmlns:serif="http://www.serif.com/" style="fill-rule:evenodd;clip-rule:evenodd;">
    <g transform="matrix(1,0,0,1,5,20)">
        <path d="M256,60C256,26.885 229.115,0 196,0L60,0C26.885,0 0,26.885 0,60L0,196C0,229.115 26.885,256 60,256L196,256C229.115,256 256,229.115 256,196L256,60Z" style="fill:rgb(36,41,56);"/>
    </g>
    <g transform="matrix(1,0,0,1,5,20)">
        <path d="M67.895,193.68L65.748,193.68C64.889,202.533 63.686,213.294 48.57,213.294L41.613,213.294C37.576,213.294 37.405,212.687 37.405,209.823L37.405,163.738C37.405,160.787 37.405,159.572 45.478,159.572L48.312,159.572L48.312,156.968C45.22,157.229 37.491,157.229 33.969,157.229C30.619,157.229 23.92,157.229 21,156.968L21,159.572L22.975,159.572C29.589,159.572 29.761,160.526 29.761,163.651L29.761,209.215C29.761,212.34 29.589,213.294 22.975,213.294L21,213.294L21,215.985L65.576,215.985L67.895,193.68Z" style="fill:white;fill-rule:nonzero;"/>
    </g>
    <g transform="matrix(1,0,0,1,5,20)">
        <path d="M66.435,156.881C66.091,155.84 65.92,155.493 64.803,155.493C63.686,155.493 63.429,155.84 63.085,156.881L49.257,192.291C48.656,193.767 47.625,196.457 42.3,196.457L42.3,198.627L55.613,198.627L55.613,196.457C52.95,196.457 51.319,195.242 51.319,193.506C51.319,193.072 51.404,192.899 51.576,192.291L54.496,184.827L71.502,184.827L74.938,193.68C75.11,194.027 75.281,194.461 75.281,194.721C75.281,196.457 72.018,196.457 70.386,196.457L70.386,198.627L87.306,198.627L87.306,196.457L86.103,196.457C82.066,196.457 81.637,195.85 81.036,194.114L66.435,156.881ZM62.999,163.043L70.643,182.658L55.355,182.658L62.999,163.043Z" style="fill:white;fill-rule:nonzero;"/>
    </g>
    <g transform="matrix(1,0,0,1,5,20)">
        <path d="M135.231,157.489L82.925,157.489L81.379,176.93L83.441,176.93C84.643,162.956 85.931,160.092 98.9,160.092C100.446,160.092 102.679,160.092 103.538,160.266C105.342,160.613 105.342,161.568 105.342,163.564L105.342,209.128C105.342,212.079 105.342,213.294 96.324,213.294L92.888,213.294L92.888,215.985C96.409,215.724 105.084,215.724 109.035,215.724C112.986,215.724 121.832,215.724 125.354,215.985L125.354,213.294L121.918,213.294C112.9,213.294 112.9,212.079 112.9,209.128L112.9,163.564C112.9,161.828 112.9,160.613 114.446,160.266C115.391,160.092 117.71,160.092 119.342,160.092C132.225,160.092 133.513,162.956 134.716,176.93L136.863,176.93L135.231,157.489Z" style="fill:white;fill-rule:nonzero;"/>
    </g>
    <g transform="matrix(1,0,0,1,5,20)">
        <path d="M181.267,213.207L179.12,213.207C176.972,226.486 174.997,232.822 160.31,232.822L148.973,232.822C144.936,232.822 144.764,232.214 144.764,229.35L144.764,206.264L152.408,206.264C160.74,206.264 161.684,209.042 161.684,216.419L163.832,216.419L163.832,193.506L161.684,193.506C161.684,200.883 160.74,203.574 152.408,203.574L144.764,203.574L144.764,182.831C144.764,179.967 144.936,179.36 148.973,179.36L159.967,179.36C173.107,179.36 175.341,184.133 176.715,196.197L178.862,196.197L176.457,176.756L128.36,176.756L128.36,179.36L130.335,179.36C136.949,179.36 137.12,180.314 137.12,183.439L137.12,228.743C137.12,231.867 136.949,232.822 130.335,232.822L128.36,232.822L128.36,235.512L177.66,235.512L181.267,213.207Z" style="fill:white;fill-rule:nonzero;"/>
    </g>
    <g transform="matrix(1,0,0,1,5,20)">
        <path d="M207.119,182.571L218.886,165.213C220.69,162.436 223.61,159.659 231.254,159.572L231.254,156.968L210.812,156.968L210.812,159.572C214.248,159.659 216.138,161.568 216.138,163.564C216.138,164.432 215.966,164.606 215.365,165.56L205.573,180.141L194.58,163.477C194.408,163.217 193.978,162.523 193.978,162.175C193.978,161.134 195.868,159.659 199.475,159.572L199.475,156.968C196.555,157.229 190.285,157.229 187.022,157.229C184.359,157.229 179.034,157.142 175.856,156.968L175.856,159.572L177.488,159.572C182.212,159.572 183.844,160.179 185.476,162.609L201.193,186.65L187.193,207.566C185.991,209.302 183.414,213.294 174.825,213.294L174.825,215.985L195.267,215.985L195.267,213.294C191.316,213.208 189.856,210.864 189.856,209.302C189.856,208.521 190.113,208.174 190.715,207.219L202.825,189.08L216.395,209.736C216.567,210.083 216.825,210.43 216.825,210.691C216.825,211.732 214.935,213.208 211.242,213.294L211.242,215.985C214.248,215.724 220.518,215.724 223.696,215.724C227.303,215.724 231.254,215.811 234.861,215.985L234.861,213.294L233.229,213.294C228.763,213.294 226.959,212.86 225.156,210.17L207.119,182.571Z" style="fill:white;fill-rule:nonzero;"/>
    </g>
    <g transform="matrix(1,0,0,1,5,20)">
        <path d="M67.033,21.075C68.532,23.776 70.092,26.102 71.718,28.103L71.738,28.123C71.743,28.13 71.752,28.135 71.758,28.142C71.008,28.033 70.236,27.957 69.435,27.965C67.851,27.982 66.15,28.254 64.316,28.831C67.466,31.469 70.148,33.397 72.505,34.895C72.448,34.876 72.386,34.854 72.328,34.836L72.505,34.934C68.853,33.791 64.913,33.651 60.3,35.84C63.612,37.912 66.392,39.425 68.844,40.565C68.773,40.554 68.699,40.535 68.628,40.525L68.805,40.624C64.983,39.965 61.016,40.335 56.698,43.183C59.514,44.438 61.96,45.385 64.139,46.116L64.159,46.116L64.297,46.195C60.652,46.336 57.04,47.471 53.509,50.821C56.594,51.586 59.235,52.097 61.56,52.435C61.495,52.449 61.429,52.461 61.364,52.475C61.273,52.473 61.178,52.476 61.088,52.475L61.186,52.514C58.469,53.131 55.82,54.493 53.233,57.101C55.33,57.554 57.216,57.906 58.942,58.164C56.817,59.192 54.797,60.784 52.958,63.223C55.373,63.411 57.513,63.491 59.435,63.499C57.11,64.575 54.919,66.263 52.977,68.992C56.427,69.164 59.311,69.157 61.797,69.011C61.75,69.03 61.705,69.051 61.659,69.07C61.508,69.084 61.356,69.093 61.206,69.11L61.423,69.188C58.839,70.323 56.447,72.161 54.395,75.271C58.682,75.334 62.078,75.132 64.927,74.779C64.84,74.803 64.757,74.833 64.671,74.858C64.561,74.864 64.445,74.87 64.336,74.878L64.474,74.917C61.115,75.918 58.013,77.845 55.438,81.748C58.902,81.799 61.793,81.668 64.277,81.433C64.223,81.463 64.173,81.502 64.12,81.532C61.152,83.187 58.601,85.673 56.914,89.879C59.96,89.302 62.514,88.693 64.73,88.048C64.693,88.077 64.648,88.097 64.612,88.127L64.749,88.107C62.468,89.81 60.55,92.195 59.257,95.726C61.354,95.262 63.228,94.775 64.907,94.289C63.4,96.111 62.235,98.386 61.58,101.376C63.857,100.537 65.833,99.73 67.584,98.935C67.563,98.959 67.546,98.988 67.525,99.013C67.489,99.042 67.442,99.064 67.407,99.092L67.466,99.072C65.859,100.998 64.633,103.42 64.021,106.632C67.227,105.35 69.835,104.119 72.033,102.951C71.971,103.011 71.895,103.067 71.837,103.128L71.896,103.108C69.952,105.24 68.5,107.979 67.919,111.75C71.703,110.079 74.62,108.527 77.014,107.065C76.989,107.091 76.96,107.118 76.935,107.144L77.093,107.065C74.374,109.393 72.288,112.482 71.561,117.203C76.662,114.951 80.229,112.912 82.999,111.022C81.809,113.427 81.181,116.23 81.483,119.743C86.412,115.961 89.534,112.911 91.858,110.215C91.854,110.254 91.861,110.294 91.858,110.333C91.717,112.042 91.823,113.895 92.33,115.943C95.253,110.922 98.176,108.841 101.149,107.124C97.43,109.535 98.098,111.488 98.098,113.719C102.52,109.062 108.673,104.115 110.559,101.021C108.037,104.809 107.03,108.406 106.366,111.573C93.461,118.398 85.586,120.185 76.778,122.912C80.195,124.165 83.862,125.383 82.349,127.125L78.313,131.161C80.894,130.359 83.529,129.202 85.814,130.767C85.59,132.884 82.92,133.962 80.636,135.196C84.657,133.748 85.524,134.089 86.581,134.429C87.11,136.965 85.275,138.325 84.081,140C94.209,132.3 107.415,126.22 116.721,123.68C129.811,119.272 146.7,114.676 151.291,103.501L155.878,85.075C161.259,79.251 166.208,73.221 168.556,65.881C183.54,62.982 195.662,64.021 208.302,64.345C207.15,64.153 169.717,57.81 169.717,57.81C158.774,42.838 142.45,53.02 137.077,67.81C135.72,71.543 127.98,71.535 125.738,67.791C116.871,48.701 89.947,28.514 67.033,21.075Z" style="fill-rule:nonzero;"/>
    </g>
    <g transform="matrix(1,0,0,1,5,20)">
        <path d="M66.772,20C68.282,22.72 69.852,25.041 71.49,27.052C70.741,26.943 69.969,26.879 69.167,26.887C67.584,26.904 65.891,27.167 64.057,27.744C67.257,30.424 69.962,32.38 72.348,33.887C68.662,32.71 64.693,32.542 60.03,34.755C63.436,36.886 66.295,38.426 68.797,39.577C64.896,38.858 60.851,39.185 56.437,42.096C59.352,43.395 61.872,44.37 64.109,45.111C60.437,45.239 56.804,46.373 53.247,49.747C56.332,50.512 58.975,51.019 61.3,51.357C58.455,51.932 55.663,53.297 52.958,56.024C55.054,56.477 56.941,56.819 58.667,57.077C56.542,58.105 54.529,59.697 52.689,62.137C55.105,62.324 57.242,62.408 59.163,62.415C56.838,63.491 54.662,65.191 52.72,67.919C56.17,68.091 59.052,68.074 61.538,67.929C58.806,69.046 56.288,70.933 54.135,74.196C58.422,74.259 61.818,74.053 64.666,73.701C61.131,74.66 57.859,76.59 55.167,80.67C58.631,80.721 61.521,80.595 64.005,80.36C60.969,82.015 58.361,84.525 56.644,88.806C59.77,88.214 62.39,87.581 64.646,86.917C62.296,88.627 60.32,91.029 58.998,94.64C61.095,94.177 62.956,93.691 64.635,93.205C63.128,95.027 61.966,97.308 61.31,100.298C63.588,99.46 65.558,98.647 67.309,97.851C65.645,99.799 64.374,102.264 63.747,105.554C66.953,104.272 69.561,103.047 71.759,101.878C69.744,104.032 68.245,106.803 67.65,110.665C71.554,108.941 74.549,107.345 76.984,105.843C74.187,108.187 72.037,111.303 71.295,116.116C76.395,113.865 79.955,111.822 82.725,109.932C81.535,112.337 80.905,115.154 81.207,118.666C86.137,114.884 89.259,111.823 91.583,109.126C91.426,110.868 91.55,112.762 92.068,114.857C95.607,108.776 99.124,107.001 102.764,104.972C96.967,107.891 97.826,110.088 97.826,112.637C102.249,107.98 108.416,103.041 110.303,99.947C107.78,103.735 106.754,107.322 106.09,110.489C93.185,117.314 85.328,119.097 76.519,121.825C79.936,123.079 83.598,124.306 82.084,126.048L78.047,130.075C80.628,129.273 83.259,128.128 85.543,129.693C85.319,131.81 82.644,132.878 80.36,134.112C84.381,132.663 85.25,132.998 86.307,133.338C86.835,135.874 85.003,137.238 83.809,138.913C93.936,131.213 107.15,125.13 116.456,122.589C129.546,118.181 146.424,113.599 151.014,102.425L155.619,83.995C161,78.17 165.95,72.131 168.298,64.79C183.283,61.891 195.399,62.938 208.039,63.262C206.887,63.07 169.445,56.726 169.445,56.726C158.502,41.755 142.191,51.931 136.817,66.721C135.461,70.454 127.723,70.455 125.481,66.711C116.614,47.621 89.687,27.438 66.773,20L66.772,20Z" style="fill:rgb(0,128,128);fill-rule:nonzero;"/>
    </g>
    <g transform="matrix(1,0,0,1,5,20)">
        <path d="M155.177,59.069L155.079,59.227C154.691,59.95 154.034,60.444 153.11,60.743C152.187,61.041 151.004,61.137 149.626,61.077L148.76,61.038L149.39,61.648C149.709,61.956 149.799,62.201 149.803,62.416C149.808,62.631 149.715,62.862 149.508,63.125C149.093,63.649 148.269,64.219 147.5,64.798L147.244,64.975L147.421,65.231C148.062,66.215 148.356,66.973 148.425,67.554C148.494,68.135 148.359,68.553 148.09,68.912C147.553,69.632 146.375,70.12 145.314,70.724L145.118,70.822L145.157,71.058C145.248,71.612 145.099,72.064 144.704,72.515C144.309,72.966 143.645,73.396 142.755,73.775L142.519,73.873L142.558,74.129C142.736,75.314 143.092,76.346 143.838,77.003C144.52,77.605 145.553,77.764 146.87,77.496C147.099,78.759 147.428,79.908 148.189,80.665C148.959,81.433 150.18,81.66 151.811,81.236C152.178,82.121 152.715,82.751 153.327,83.165C153.999,83.62 154.878,83.803 155.6,84.028L156.028,83.567C155.311,83.344 154.252,83 153.681,82.614C153.11,82.228 152.646,81.699 152.323,80.783L152.224,80.468L151.909,80.567C150.232,81.082 149.302,80.85 148.661,80.212C148.021,79.575 147.661,78.422 147.441,77.082L147.382,76.728L147.027,76.826C145.645,77.187 144.828,77.003 144.271,76.511C143.751,76.052 143.443,75.239 143.267,74.228C144.068,73.857 144.755,73.452 145.196,72.948C145.628,72.456 145.814,71.848 145.787,71.216C146.764,70.678 147.943,70.216 148.622,69.306C148.977,68.83 149.161,68.205 149.075,67.475C148.996,66.812 148.671,66.045 148.11,65.133C148.799,64.625 149.546,64.117 150.02,63.518C150.283,63.185 150.481,62.817 150.472,62.396C150.468,62.164 150.245,61.953 150.118,61.727C151.316,61.743 152.407,61.664 153.307,61.373C154.256,61.066 155.001,60.507 155.492,59.739C156.91,59.746 158.378,60.057 159.863,60.25C161.388,60.449 162.94,60.502 164.41,59.857L164.135,59.246C162.834,59.817 161.445,59.794 159.961,59.601C158.477,59.408 156.931,59.058 155.374,59.069L155.177,59.069Z" style="fill:white;fill-rule:nonzero;"/>
    </g>
    <g transform="matrix(1,0,0,1,5,20)">
        <path d="M160.686,58.824C160.686,60.369 159.434,61.621 157.889,61.621C156.344,61.621 155.092,60.369 155.092,58.824C155.092,57.279 156.344,56.027 157.889,56.027C159.434,56.027 160.686,57.279 160.686,58.824Z" style="fill:white;fill-rule:nonzero;stroke:white;stroke-width:0.66px;"/>
    </g>
    <g transform="matrix(1,0,0,1,5,20)">
        <path d="M169.041,56.2C166.529,59.467 165.898,58.623 164.369,59.171L164.113,59.269L164.153,59.545C164.741,62.826 166.686,63.869 168.204,65.062L168.288,64.796L168.692,64.719C167.171,63.524 165.506,62.511 164.901,59.722C166.014,59.459 167.077,59.795 169.448,56.71L169.041,56.2Z" style="fill:white;fill-rule:nonzero;"/>
    </g>
    <g transform="matrix(1,0,0,1,5,20)">
        <path d="M72.344,33.879C77.09,36.822 84.9,39.856 89.915,43.026C92.675,44.783 95.153,46.533 97.081,48.046C99.009,49.558 100.435,51.121 100.96,51.629C101.484,52.137 101.84,51.897 101.491,51.235C101.142,50.573 99.425,49.044 97.475,47.514C95.525,45.985 93.046,44.242 90.27,42.475C84.718,38.94 78.203,35.779 72.345,33.879L72.344,33.879Z" style="fill:white;fill-rule:nonzero;"/>
    </g>
    <g transform="matrix(1,0,0,1,5,20)">
        <path d="M71.491,27.051C73.48,27.51 76.416,29.206 79.681,31.022C82.946,32.837 86.504,35.071 89.76,37.243C93.016,39.414 95.526,41.315 97.533,42.847C99.439,44.478 100.38,45.534 100.745,45.531C100.795,45.541 100.844,45.541 100.922,45.531C101,45.52 101.131,45.46 101.197,45.334C101.264,45.208 101.238,45.102 101.217,45.038C101.196,44.975 101.185,44.941 101.158,44.901C101.05,44.739 100.886,44.587 100.646,44.369C100.167,43.932 99.374,43.29 98.363,42.519C96.34,40.975 93.401,38.871 90.134,36.691C86.867,34.512 83.283,32.259 79.996,30.431C78.827,29.998 73.095,26.967 71.49,27.05L71.491,27.051Z" style="fill:white;fill-rule:nonzero;"/>
    </g>
    <g transform="matrix(1,0,0,1,5,20)">
        <path d="M68.772,39.578C74.862,42.064 83.527,44.984 89.31,48.619C92.418,50.593 95.124,52.558 97.145,54.171C98.156,54.977 99,55.702 99.626,56.277C100.252,56.853 100.604,57.375 100.807,57.518C101.23,57.816 101.555,57.618 101.358,57.144C101.21,56.786 100.72,56.375 100.078,55.785C99.437,55.196 98.579,54.473 97.559,53.659C95.518,52.031 92.794,50.036 89.664,48.048C83.406,44.074 75.924,40.58 68.772,39.578Z" style="fill:white;fill-rule:nonzero;"/>
    </g>
    <g transform="matrix(1,0,0,1,5,20)">
        <path d="M64.085,45.103C68.831,45.106 78.637,49.451 82.77,51.628C89.471,55.202 95.565,59.796 98.932,63.007C99.306,63.363 99.851,63.049 99.424,62.554C96.296,58.929 89.836,54.658 83.085,51.057C76.334,47.457 69.344,45.097 64.085,45.103Z" style="fill:white;fill-rule:nonzero;"/>
    </g>
    <g transform="matrix(1,0,0,1,5,20)">
        <path d="M61.342,51.355C68.478,52.399 77.032,55.28 83.264,58.401C86.742,60.167 89.844,62.058 92.222,63.736C94.6,65.413 96.356,67.302 96.789,67.791C97.222,68.28 97.739,68.3 97.34,67.437C96.942,66.573 95.005,64.884 92.596,63.185C90.187,61.485 87.065,59.59 83.56,57.81C76.55,54.251 68.566,51.45 61.342,51.355Z" style="fill:white;fill-rule:nonzero;"/>
    </g>
    <g transform="matrix(1,0,0,1,5,20)">
        <path d="M63.697,56.666C61.925,56.512 60.329,56.875 58.703,57.079C65.044,56.484 73.91,59.396 79.821,62.12C86.783,65.384 92.564,69.865 95.334,72.711C95.767,73.156 96.074,72.589 95.846,72.297C93.267,69.005 87.126,64.805 80.096,61.509C74.824,59.038 69.016,57.131 63.697,56.667L63.697,56.666Z" style="fill:white;fill-rule:nonzero;"/>
    </g>
    <g transform="matrix(1,0,0,1,5,20)">
        <path d="M59.192,62.381C65.432,62.844 73.786,64.338 79.638,67.024C85.523,69.777 89.99,73.346 92.237,75.371C92.583,75.683 93.194,75.462 92.709,74.899C90.659,72.516 85.89,69.22 79.933,66.434C73.976,63.647 66.739,61.863 59.192,62.381Z" style="fill:white;fill-rule:nonzero;"/>
    </g>
    <g transform="matrix(1,0,0,1,5,20)">
        <path d="M64.796,67.574C63.479,67.529 62.862,67.776 61.592,67.913C65.827,68.099 72.557,69.226 76.273,70.487C81.096,72.161 85.062,74.681 87.318,76.649C87.753,77.029 88.078,76.519 87.79,76.197C85.677,73.826 81.384,71.555 76.49,69.857C72.819,68.584 68.745,67.707 64.796,67.574Z" style="fill:white;fill-rule:nonzero;"/>
    </g>
    <g transform="matrix(1,0,0,1,5,20)">
        <path d="M64.614,73.715C73.667,74.326 79.142,75.921 83.338,79.68C83.652,79.962 84.149,79.574 83.81,79.208C79.504,74.542 71.026,73.242 64.614,73.715Z" style="fill:white;fill-rule:nonzero;"/>
    </g>
    <g transform="matrix(1,0,0,1,5,20)">
        <path d="M71.585,79.153C68.841,78.932 66.545,79.532 64.043,80.365C71.363,79.198 74.406,79.758 79.952,82.362C80.584,82.659 80.547,81.959 80.267,81.791C77.321,80.02 74.329,79.374 71.585,79.153Z" style="fill:white;fill-rule:nonzero;"/>
    </g>
    <g transform="matrix(1,0,0,1,5,20)">
        <path d="M71.325,84.251C68.73,84.481 66.527,85.372 64.71,86.85C71.958,84.056 73.962,84.612 79.505,86.183C80.234,86.39 80.008,85.688 79.722,85.573C76.402,84.242 73.92,84.021 71.325,84.251Z" style="fill:white;fill-rule:nonzero;"/>
    </g>
    <g transform="matrix(1,0,0,1,5,20)">
        <path d="M85.686,88.741C81.819,88.322 77.462,88.791 73.638,89.489C69.814,90.186 66.526,91.603 64.669,93.112C71.027,90.427 72.186,90.433 73.757,90.138C77.524,89.451 81.258,89.184 85.647,89.39C86.045,89.409 86.025,88.777 85.687,88.741L85.686,88.741Z" style="fill:white;fill-rule:nonzero;"/>
    </g>
    <g transform="matrix(1,0,0,1,5,20)">
        <path d="M87.931,91.871C83.74,91.712 79.411,92.749 75.666,93.82C71.922,94.89 69.142,96.35 67.309,97.841C71.018,96.057 74.469,94.849 75.843,94.45C79.535,93.394 83.26,92.481 87.97,92.54C88.336,92.545 88.573,91.895 87.931,91.871Z" style="fill:white;fill-rule:nonzero;"/>
    </g>
    <g transform="matrix(1,0,0,1,5,20)">
        <path d="M91.353,94.447C87.406,95.03 83.268,96.196 79.659,97.42C76.052,98.644 73.484,100.098 71.808,101.838C76.1,99.375 78.46,98.511 79.856,98.03C83.42,96.821 86.747,95.98 91.471,95.097C92.038,94.991 91.583,94.413 91.353,94.447Z" style="fill:white;fill-rule:nonzero;"/>
    </g>
    <g transform="matrix(1,0,0,1,5,20)">
        <path d="M93.361,97.735C85.445,98.996 80.315,102.411 77.055,105.798C82.108,101.991 85.623,99.945 93.498,98.385C93.997,98.286 93.846,97.658 93.361,97.735Z" style="fill:white;fill-rule:nonzero;"/>
    </g>
    <g transform="matrix(1,0,0,1,5,20)">
        <path d="M97.218,100.628C89.256,101.854 84.665,106.694 82.753,109.889C87.79,104.857 91.711,102.118 97.355,101.278C97.927,101.193 97.781,100.541 97.218,100.628Z" style="fill:white;fill-rule:nonzero;"/>
    </g>
    <g transform="matrix(1,0,0,1,5,20)">
        <path d="M99.621,103.149C98.379,103.304 96.689,104.184 95.093,105.197C93.496,106.21 92.292,107.442 91.574,109.03C93.497,107.045 94.266,106.508 95.447,105.748C96.98,104.775 98.524,104.163 99.778,103.799C100.366,103.628 99.922,103.112 99.621,103.149Z" style="fill:white;fill-rule:nonzero;"/>
    </g>
    <g transform="matrix(1,0,0,1,5,20)">
        <path d="M160.686,58.824C160.686,60.369 159.434,61.621 157.889,61.621C156.344,61.621 155.092,60.369 155.092,58.824C155.092,57.279 156.344,56.027 157.889,56.027C159.434,56.027 160.686,57.279 160.686,58.824Z" style="fill:white;fill-rule:nonzero;stroke:white;stroke-width:0.66px;"/>
    </g>
    <g transform="matrix(1,0,0,1,5,20)">
        <path d="M160.686,58.824C160.686,60.369 159.434,61.621 157.889,61.621C156.344,61.621 155.092,60.369 155.092,58.824C155.092,57.279 156.344,56.027 157.889,56.027C159.434,56.027 160.686,57.279 160.686,58.824Z" style="fill:rgb(55,200,113);fill-rule:nonzero;stroke:white;stroke-width:0.66px;"/>
    </g>
</svg>
