<?xml version="1.0" encoding="UTF-8" standalone="no"?>
<!DOCTYPE svg PUBLIC "-//W3C//DTD SVG 1.1//EN" "http://www.w3.org/Graphics/SVG/1.1/DTD/svg11.dtd">
<svg width="100%" height="100%" viewBox="0 0 256 256" version="1.1" xmlns="http://www.w3.org/2000/svg" xmlns:xlink="http://www.w3.org/1999/xlink" xml:space="preserve" xmlns:serif="http://www.serif.com/" style="fill-rule:evenodd;clip-rule:evenodd;stroke-linejoin:round;stroke-miterlimit:2;">
    <path d="M256,60C256,26.885 229.115,0 196,0L60,0C26.885,0 0,26.885 0,60L0,196C0,229.115 26.885,256 60,256L196,256C229.115,256 256,229.115 256,196L256,60Z" style="fill:rgb(36,41,56);"/>
    <clipPath id="_clip1">
        <path d="M95.904,106.851C94.28,109.357 92.708,111.872 91.193,114.392C89.535,109.828 88.08,105.333 86.839,100.949C91.247,100.317 95.931,99.82 100.869,99.474C99.193,101.879 97.535,104.337 95.904,106.851ZM217.771,115.683C212.888,110.997 205.907,106.702 197.024,102.918C179.388,95.408 155.766,90.541 130.507,89.217C127.461,89.057 124.488,88.948 121.611,88.89C140.895,65.872 159.52,53.624 170.366,53.213C172.663,53.125 174.591,53.579 176.102,54.561C181.178,57.86 182.587,68.093 179.869,81.933C179.334,84.665 181.114,87.315 183.845,87.851C186.578,88.386 189.228,86.608 189.764,83.876C194.435,60.082 187.9,50.204 181.597,46.107C178.308,43.968 174.398,42.969 169.983,43.137C153.3,43.771 129.923,61.561 108.592,88.987C100.147,89.278 92.006,90.006 84.389,91.145C83.554,87.262 82.908,83.5 82.47,79.894C80.557,64.127 82.903,52.935 88.746,49.955C89.685,49.477 90.71,49.201 91.882,49.113C97.102,48.721 104.468,52.229 112.609,58.99C114.751,60.768 117.93,60.474 119.71,58.332C121.488,56.19 121.194,53.012 119.051,51.233C108.595,42.549 99.2,38.452 91.127,39.059C88.631,39.246 86.289,39.89 84.165,40.973C78.738,43.741 75.029,49.041 73.142,56.726C71.525,63.306 71.296,71.51 72.461,81.108C72.921,84.904 73.595,88.855 74.463,92.922C68.508,94.176 62.99,95.706 58.043,97.493C36.401,105.31 31.405,115.615 31.024,122.884C30.661,129.827 34.215,140.159 53.209,149.954C55.684,151.231 58.725,150.258 60.001,147.784C61.277,145.31 60.305,142.269 57.831,140.993C46.904,135.358 40.803,128.95 41.093,123.41C41.502,115.606 54.583,107.347 76.865,102.693C78.929,110.146 81.58,117.889 84.759,125.74C76.75,140.772 70.907,155.588 67.877,168.768C65.711,178.184 65.079,186.36 65.996,193.069C67.067,200.904 70.201,206.56 75.309,209.881C77.914,211.574 81.424,212.898 86.035,212.898C92.721,212.897 101.721,210.112 113.617,201.627C115.884,200.01 116.412,196.862 114.795,194.595C113.178,192.328 110.03,191.802 107.763,193.418C96.036,201.782 85.958,204.776 80.804,201.427C75.307,197.855 74.148,186.49 77.703,171.026C80.06,160.773 84.267,149.409 89.971,137.695C91.21,140.347 92.503,142.999 93.851,145.647C105.332,168.201 119.387,187.823 133.427,200.9C140.498,207.485 147.261,212.122 153.526,214.681C157.329,216.234 160.9,217.01 164.214,217.01C167.282,217.01 170.132,216.344 172.74,215.014C177.975,212.344 181.616,207.309 183.56,200.049C185.226,193.83 185.6,186.074 184.674,176.993C182.85,159.139 176.103,137.365 165.676,115.679C164.471,113.171 161.458,112.115 158.949,113.321C156.439,114.527 155.383,117.54 156.59,120.048C166.524,140.709 172.935,161.296 174.642,178.017C176.144,192.723 173.72,203.197 168.16,206.032C162.321,209.009 151.907,204.333 140.299,193.522C127.1,181.229 113.796,162.601 102.835,141.074C100.33,136.151 98.022,131.218 95.921,126.324C98.528,121.662 101.348,116.986 104.362,112.339C107.437,107.602 110.549,103.136 113.669,98.947C114.497,98.937 115.33,98.928 116.169,98.925C120.499,98.911 125.139,99.031 129.979,99.286C154.088,100.551 176.496,105.136 193.074,112.195C207.655,118.405 216.155,126.025 215.812,132.577C215.521,138.14 208.762,143.89 197.267,148.354C194.672,149.362 193.383,152.283 194.391,154.879C195.166,156.874 197.072,158.097 199.094,158.097C199.7,158.097 200.316,157.986 200.915,157.753C220.89,149.998 225.517,140.068 225.882,133.104C226.2,127.018 223.472,121.156 217.771,115.683Z" clip-rule="nonzero"/>
    </clipPath>
    <g clip-path="url(#_clip1)">
        <path d="M256,60C256,26.885 229.115,0 196,0L60,0C26.885,0 0,26.885 0,60L0,196C0,229.115 26.885,256 60,256L196,256C229.115,256 256,229.115 256,196L256,60Z" style="fill:url(#_Linear2);"/>
    </g>
    <clipPath id="_clip3">
        <path d="M118.049,129.344C118.049,135.433 122.981,140.369 129.063,140.369C135.148,140.369 140.079,135.433 140.079,129.344C140.079,123.255 135.148,118.318 129.063,118.318C122.981,118.318 118.049,123.255 118.049,129.344Z" clip-rule="nonzero"/>
    </clipPath>
    <g clip-path="url(#_clip3)">
        <path d="M256,60C256,26.885 229.115,0 196,0L60,0C26.885,0 0,26.885 0,60L0,196C0,229.115 26.885,256 60,256L196,256C229.115,256 256,229.115 256,196L256,60Z" style="fill:url(#_Linear4);"/>
    </g>
    <defs>
        <linearGradient id="_Linear2" x1="0" y1="0" x2="1" y2="0" gradientUnits="userSpaceOnUse" gradientTransform="matrix(1.50546e-14,245.86,-245.86,1.50546e-14,128,10.1404)"><stop offset="0" style="stop-color:rgb(178,225,152);stop-opacity:1"/><stop offset="1" style="stop-color:rgb(4,161,113);stop-opacity:1"/></linearGradient>
        <linearGradient id="_Linear4" x1="0" y1="0" x2="1" y2="0" gradientUnits="userSpaceOnUse" gradientTransform="matrix(1.50546e-14,245.86,-245.86,1.50546e-14,128,10.1404)"><stop offset="0" style="stop-color:rgb(178,225,152);stop-opacity:1"/><stop offset="1" style="stop-color:rgb(4,161,113);stop-opacity:1"/></linearGradient>
    </defs>
</svg>
