<?xml version="1.0" encoding="UTF-8" standalone="no"?>
<!DOCTYPE svg PUBLIC "-//W3C//DTD SVG 1.1//EN" "http://www.w3.org/Graphics/SVG/1.1/DTD/svg11.dtd">
<svg width="100%" height="100%" viewBox="0 0 256 256" version="1.1" xmlns="http://www.w3.org/2000/svg" xmlns:xlink="http://www.w3.org/1999/xlink" xml:space="preserve" xmlns:serif="http://www.serif.com/" style="fill-rule:evenodd;clip-rule:evenodd;stroke-linecap:round;stroke-linejoin:round;">
    <path d="M256,60C256,26.885 229.115,0 196,0L60,0C26.885,0 0,26.885 0,60L0,196C0,229.115 26.885,256 60,256L196,256C229.115,256 256,229.115 256,196L256,60Z" style="fill:rgb(36,41,56);"/>
    <path d="M149.541,226.539C178.626,226.516 207.754,226.692 236.881,226.539L245.105,181.333L10,181.333L19.303,226.539C62.712,226.255 106.151,226.572 149.541,226.539Z" style="fill:rgb(152,160,247);"/>
    <path d="M215.716,183.071L39.388,183.071L39.388,123.93C39.388,72.055 78.861,30 127.552,30C176.243,30 215.716,72.055 215.716,123.93L215.716,183.071Z" style="fill:rgb(152,160,247);"/>
    <path d="M220.883,151.223L220.883,65.41L220.883,151.223ZM34.758,151.223L34.758,65.41L34.758,151.223Z" style="fill:white;"/>
    <path d="M34.758,151.223L34.758,65.41M220.883,151.223L220.883,65.41L220.883,151.223Z" style="fill:none;fill-rule:nonzero;stroke:rgb(32,34,37);stroke-width:3.37px;"/>
    <path d="M225.781,118.172L29.859,118.172C26.254,118.172 23.328,128.297 23.328,140.785C23.328,153.277 26.254,163.398 29.859,163.398L225.781,163.398C229.387,163.398 232.312,153.277 232.312,140.785C232.312,128.297 229.387,118.172 225.781,118.172Z" style="fill:white;"/>
    <path d="M145.727,111.754C136.949,124.848 118.691,124.848 109.914,111.754C105.781,105.594 99.113,101.938 92.004,101.938L72.254,101.938C64.168,101.938 57.617,108.922 57.617,117.535L57.617,173.254L198.027,173.254L198.027,117.535C198.027,108.922 191.473,101.938 183.387,101.938L163.637,101.938C156.527,101.938 149.859,105.594 145.727,111.754Z" style="fill:white;"/>
    <path d="M137.617,97.445C137.617,91.684 133.23,87.008 127.82,87.008C122.41,87.008 118.023,91.684 118.023,97.445C118.023,103.207 122.41,107.883 127.82,107.883C133.23,107.883 137.617,103.207 137.617,97.445Z" style="fill:white;"/>
    <path d="M96.801,140.207C96.801,133.48 91.684,128.027 85.371,128.027C79.059,128.027 73.941,133.48 73.941,140.207C73.941,146.93 79.059,152.383 85.371,152.383C91.684,152.383 96.801,146.93 96.801,140.207ZM181.699,140.207C181.699,133.48 176.582,128.027 170.27,128.027C163.957,128.027 158.84,133.48 158.84,140.207C158.84,146.93 163.957,152.383 170.27,152.383C176.582,152.383 181.699,146.93 181.699,140.207Z"/>
    <path d="M202.922,209.551C202.922,206.672 200.73,204.332 198.027,204.332C195.32,204.332 193.129,206.672 193.129,209.551C193.129,212.434 195.32,214.77 198.027,214.77C200.73,214.77 202.922,212.434 202.922,209.551ZM186.598,209.551C186.598,206.672 184.406,204.332 181.699,204.332C178.992,204.332 176.801,206.672 176.801,209.551C176.801,212.434 178.992,214.77 181.699,214.77C184.406,214.77 186.598,212.434 186.598,209.551ZM170.27,209.551C170.27,206.672 168.078,204.332 165.371,204.332C162.668,204.332 160.473,206.672 160.473,209.551C160.473,212.434 162.668,214.77 165.371,214.77C168.078,214.77 170.27,212.434 170.27,209.551Z" style="fill:white;"/>
</svg>
