<?xml version="1.0" encoding="UTF-8" standalone="no"?>
<!DOCTYPE svg PUBLIC "-//W3C//DTD SVG 1.1//EN" "http://www.w3.org/Graphics/SVG/1.1/DTD/svg11.dtd">
<svg width="100%" height="100%" viewBox="0 0 256 256" version="1.1" xmlns="http://www.w3.org/2000/svg" xmlns:xlink="http://www.w3.org/1999/xlink" xml:space="preserve" xmlns:serif="http://www.serif.com/" style="fill-rule:evenodd;clip-rule:evenodd;stroke-linejoin:round;stroke-miterlimit:2;">
    <path d="M256,60C256,26.885 229.115,0 196,0L60,0C26.885,0 0,26.885 0,60L0,196C0,229.115 26.885,256 60,256L196,256C229.115,256 256,229.115 256,196L256,60Z" style="fill:rgb(36,41,56);"/>
    <clipPath id="_clip1">
        <path d="M197.308,64.797C184.561,58.948 170.892,54.638 156.599,52.17C156.339,52.123 156.079,52.242 155.945,52.48C154.187,55.606 152.239,59.686 150.876,62.892C135.503,60.59 120.21,60.59 105.153,62.892C103.789,59.614 101.771,55.606 100.005,52.48C99.871,52.25 99.611,52.131 99.35,52.17C85.066,54.63 71.396,58.94 58.641,64.797C58.531,64.844 58.436,64.924 58.373,65.027C32.445,103.763 25.342,141.547 28.827,178.863C28.842,179.046 28.945,179.22 29.087,179.331C46.193,191.894 62.764,199.521 79.027,204.576C79.288,204.655 79.563,204.56 79.729,204.346C83.576,199.092 87.005,193.553 89.946,187.728C90.119,187.386 89.954,186.982 89.599,186.847C84.159,184.783 78.98,182.268 73.998,179.411C73.604,179.181 73.572,178.617 73.935,178.347C74.983,177.561 76.032,176.744 77.033,175.919C77.214,175.768 77.467,175.736 77.679,175.831C110.411,190.775 145.846,190.775 178.191,175.831C178.404,175.728 178.657,175.76 178.846,175.911C179.847,176.736 180.895,177.561 181.952,178.347C182.314,178.617 182.291,179.181 181.897,179.411C176.914,182.323 171.735,184.783 166.288,186.839C165.933,186.974 165.775,187.386 165.949,187.728C168.952,193.545 172.381,199.084 176.157,204.338C176.315,204.56 176.599,204.655 176.859,204.576C193.201,199.521 209.772,191.894 226.879,179.331C227.028,179.22 227.123,179.053 227.139,178.871C231.309,135.73 220.154,98.255 197.568,65.035C197.513,64.924 197.419,64.844 197.308,64.797ZM94.834,156.142C84.979,156.142 76.859,147.095 76.859,135.984C76.859,124.873 84.822,115.826 94.834,115.826C104.924,115.826 112.965,124.953 112.807,135.984C112.807,147.095 104.845,156.142 94.834,156.142ZM161.29,156.142C151.435,156.142 143.316,147.095 143.316,135.984C143.316,124.873 151.278,115.826 161.29,115.826C171.38,115.826 179.421,124.953 179.264,135.984C179.264,147.095 171.38,156.142 161.29,156.142Z" clip-rule="nonzero"/>
    </clipPath>
    <g clip-path="url(#_clip1)">
        <path d="M256,60C256,26.885 229.115,0 196,0L60,0C26.885,0 0,26.885 0,60L0,196C0,229.115 26.885,256 60,256L196,256C229.115,256 256,229.115 256,196L256,60Z" style="fill:rgb(88,101,242);"/>
    </g>
</svg>
